<svg
      width="188"
      height="56"
      class="h-auto w-full"
      viewBox="0 0 1140 341"
      fill="none"
      xmlns="http://www.w3.org/2000/svg"
    >
      <path
        d="M453.49 86.08L453.41 159.04C453.4 172.38 452.81 186.28 439.12 200.18C428.47 211.03 415.16 215.96 397.3 215.94C377.35 215.92 363.11 209.05 355.33 200.66C344.32 188.65 343.01 172.45 343.02 158.93L343.1 85.97L375.97 86L375.89 161.25C375.88 166.58 376.06 174.78 382.33 180.88C386.12 184.5 392.2 186.99 397.9 186.99C403.6 187 409.49 184.71 413.11 181.48C420.72 174.82 420.54 165.49 420.54 158.44L420.62 86.05L453.49 86.08Z"
        fill="#0C3249"
      ></path>
      <path
        d="M572.93 126.53L504.58 255.24L470.57 255.2L499.13 199.98L458.17 126.4L493.51 126.44L516.07 170.09L538.15 126.49L572.93 126.53Z"
        fill="#0C3249"
      ></path>
      <path
        d="M722.78 156.41L722.72 211.85L692.32 211.82L692.36 169.72C692.37 160.77 691.43 154.67 688.01 151.43C686.3 149.91 684.02 148.57 680.03 148.56C676.61 148.56 673.76 149.51 671.1 151.98C665.96 156.93 665.58 163.98 665.57 168.17L665.52 211.8L635.12 211.77L635.16 169.67C635.17 161.48 634.61 155 631.19 151.38C628.54 148.52 625.11 147.94 622.08 147.94C618.85 147.94 616.19 148.51 613.72 150.98C608.4 156.12 608.39 164.31 608.38 169.64L608.34 211.74L577.94 211.71L578.03 126.55L608.43 126.58L609.34 135.8C615.95 128.76 625.53 125.07 633.89 125.08C639.97 125.09 645.67 126.43 650.23 128.91C656.5 132.16 659.91 136.92 662 141.12C665.43 135.03 669.8 131.41 673.6 129.32C679.69 125.9 685.57 125.14 691.27 125.15C697.54 125.16 707.8 126.12 714.82 132.99C722.41 140.41 722.78 150.51 722.78 156.41Z"
        fill="#0C3249"
      ></path>
      <path
        d="M831.02 126.81L830.93 211.97L800.53 211.94L799.05 204.48C792.33 212.12 782.48 214.77 774.12 214.76C765 214.75 753.79 212.07 743.54 201.2C735.38 192.43 731.4 182.71 731.41 169.94C731.43 153.94 737.71 142.71 744.55 135.86C751.78 128.63 762.99 123.88 775.15 123.89C788.83 123.9 796.15 130.59 799.37 133.67L800.61 126.77L831.02 126.81ZM802.12 169.25C802.12 164.94 800.9 159.18 795.78 154.24C792.71 151.36 788 148.27 781.03 148.26C776.93 148.26 771.39 149.69 766.67 154.21C762.16 158.52 760.1 164.48 760.1 169.21C760.09 174.55 762.34 180.31 766.44 184.22C769.92 187.51 775.66 190.4 781.19 190.4C786.52 190.41 791.85 188.15 795.96 184.04C798.83 181.17 802.11 176.65 802.12 169.25Z"
        fill="#0C3249"
      ></path>
      <path
        d="M899.72 166.13L938.87 212.08L901.53 212.04L880.61 184.8L874.71 190.58L874.69 212.01L844.29 211.98L844.42 85.9399L874.82 85.97L874.74 157.52L903.45 126.88L939.86 126.92L899.72 166.13Z"
        fill="#0C3249"
      ></path>
      <path
        d="M1039.42 169.51C1039.41 180.94 1035.6 191.8 1026.28 200.93C1015.06 211.97 1001.94 215 988.27 214.99C975.92 214.98 962.24 212.49 950.47 200.85C941.17 191.7 937.38 180.83 937.39 169.4C937.41 154.16 944.26 144.26 950.53 138.17C957.57 131.32 969.93 124.09 988.36 124.11C1007.17 124.13 1019.32 131.57 1026.34 138.25C1032.6 144.36 1039.43 154.27 1039.42 169.51ZM1010.35 169.49C1010.36 164.34 1008.01 158.11 1003.73 153.81C999.88 150.16 993.89 147.57 988.53 147.57C982.96 147.56 976.97 150.14 973.11 153.78C968.82 157.85 966.46 163.86 966.46 169.44C966.45 175.24 969.23 180.82 973.08 184.69C977.14 188.77 982.71 191.14 988.49 191.15C994.06 191.16 999.63 188.8 1003.7 184.73C1007.98 180.65 1010.34 175.07 1010.35 169.49Z"
        fill="#0C3249"
      ></path>
      <path
        d="M1139.12 158.19L1139.06 212.29L1108.66 212.26L1108.71 169.21C1108.72 164.26 1108.91 156.83 1104.93 152.63C1102.08 149.58 1098.28 149 1095.24 149C1090.49 148.99 1086.5 150.7 1084.03 152.99C1080.99 155.84 1079.08 161.37 1079.08 166.51L1079.03 212.23L1048.63 212.2L1048.72 127.05L1079.12 127.08L1080.02 136.61C1087.32 127.09 1098.69 125.2 1106.1 125.21C1114.84 125.22 1124.15 127.32 1131.17 134.38C1138.38 141.61 1139.13 148.85 1139.12 158.19Z"
        fill="#0C3249"
      ></path>
      <path
        d="M737.34 238.63L737.3 277.04L730.62 277.03L730.66 238.62L737.34 238.63Z"
        fill="#0C3249"
      ></path>
      <path
        d="M773.95 269.01C773.2 270.88 772.2 272.46 770.94 273.75C769.68 275.05 768.24 276.02 766.61 276.68C764.98 277.34 763.32 277.66 761.6 277.66C759.23 277.66 757.26 277.14 755.69 276.12C754.12 275.1 752.83 273.9 751.81 272.55L751.85 285.83L745.17 285.82L745.21 248.07L751.89 248.08L751.88 252.91C752.94 251.37 754.25 250.09 755.82 249.05C757.39 248.01 759.33 247.49 761.66 247.49C763.37 247.49 765.03 247.82 766.63 248.48C768.23 249.14 769.66 250.12 770.91 251.42C772.16 252.72 773.17 254.3 773.93 256.17C774.69 258.04 775.07 260.18 775.07 262.59C775.08 265.01 774.7 267.15 773.95 269.01ZM767.75 258.72C767.31 257.57 766.72 256.59 765.98 255.78C765.23 254.97 764.36 254.35 763.35 253.91C762.35 253.47 761.28 253.25 760.15 253.25C759.02 253.25 757.94 253.47 756.92 253.91C755.9 254.35 755 254.98 754.24 255.8C753.47 256.62 752.86 257.6 752.4 258.73C751.94 259.86 751.71 261.14 751.71 262.57C751.71 264 751.93 265.28 752.39 266.41C752.84 267.55 753.45 268.52 754.22 269.35C754.99 270.17 755.88 270.81 756.9 271.25C757.92 271.69 759 271.91 760.13 271.91C761.26 271.91 762.33 271.69 763.33 271.25C764.33 270.81 765.21 270.19 765.96 269.39C766.71 268.59 767.3 267.61 767.74 266.46C768.18 265.31 768.4 264.02 768.4 262.59C768.41 261.16 768.19 259.87 767.75 258.72Z"
        fill="#0C3249"
      ></path>
      <path
        d="M808.27 268.5C807.48 270.33 806.41 271.93 805.04 273.3C803.67 274.67 802.03 275.76 800.14 276.56C798.25 277.36 796.18 277.76 793.95 277.76C791.76 277.76 789.73 277.36 787.85 276.57C785.97 275.78 784.35 274.7 782.98 273.33C781.61 271.96 780.55 270.36 779.78 268.55C779.02 266.74 778.63 264.79 778.64 262.71C778.64 260.62 779.04 258.66 779.82 256.81C780.61 254.96 781.68 253.35 783.05 251.98C784.42 250.61 786.04 249.52 787.93 248.72C789.81 247.92 791.86 247.52 794.09 247.52C796.31 247.52 798.37 247.92 800.25 248.71C802.13 249.5 803.75 250.58 805.12 251.95C806.49 253.32 807.55 254.92 808.32 256.76C809.08 258.59 809.47 260.55 809.46 262.63C809.45 264.72 809.06 266.67 808.27 268.5ZM802.13 259.11C801.7 257.98 801.09 256.98 800.31 256.12C799.53 255.26 798.61 254.58 797.54 254.09C796.47 253.6 795.28 253.35 793.98 253.35C792.67 253.35 791.49 253.59 790.42 254.09C789.35 254.58 788.43 255.25 787.67 256.09C786.91 256.93 786.33 257.91 785.93 259.02C785.53 260.14 785.33 261.33 785.33 262.61C785.33 263.89 785.54 265.11 785.98 266.26C786.41 267.41 787.02 268.41 787.8 269.25C788.58 270.09 789.5 270.76 790.57 271.26C791.64 271.76 792.81 272 794.08 272C795.42 272 796.63 271.76 797.7 271.26C798.77 270.77 799.69 270.1 800.45 269.26C801.21 268.42 801.79 267.44 802.19 266.33C802.59 265.21 802.79 264.02 802.79 262.74C802.78 261.45 802.56 260.25 802.13 259.11Z"
        fill="#0C3249"
      ></path>
      <path
        d="M822.58 268.07C822.58 269.36 822.89 270.28 823.51 270.85C824.13 271.42 825.01 271.71 826.14 271.71C827.56 271.71 828.93 271.38 830.25 270.73L830.24 276.16C829.4 276.64 828.51 277 827.56 277.26C826.61 277.51 825.52 277.64 824.28 277.64C823.07 277.64 821.96 277.49 820.93 277.2C819.9 276.91 819.01 276.43 818.26 275.77C817.51 275.11 816.93 274.24 816.53 273.16C816.12 272.08 815.92 270.73 815.93 269.12L815.95 253.83H812.28L812.29 248.18H815.96L815.97 240.22L822.65 240.23L822.64 248.19L830.41 248.2L830.4 253.85L822.63 253.84L822.58 268.07Z"
        fill="#0C3249"
      ></path>
      <path
        d="M842.39 270.49C843.89 271.75 845.71 272.39 847.86 272.39C849.5 272.39 850.93 272.1 852.13 271.52C853.33 270.94 854.52 270.08 855.69 268.94L859.57 272.4C858.18 274.04 856.53 275.36 854.61 276.35C852.69 277.34 850.4 277.83 847.74 277.82C845.66 277.82 843.72 277.45 841.91 276.72C840.1 275.99 838.54 274.96 837.21 273.64C835.88 272.32 834.83 270.74 834.07 268.89C833.31 267.04 832.93 264.98 832.93 262.72C832.93 260.63 833.28 258.68 833.98 256.85C834.67 255.02 835.65 253.42 836.91 252.05C838.17 250.68 839.66 249.59 841.37 248.79C843.08 247.99 844.98 247.59 847.06 247.59C849.36 247.59 851.37 248.02 853.11 248.86C854.84 249.7 856.28 250.84 857.43 252.27C858.58 253.7 859.44 255.36 860.02 257.27C860.6 259.17 860.89 261.17 860.89 263.25C860.89 263.54 860.88 263.84 860.86 264.13C860.84 264.42 860.81 264.73 860.78 265.06L839.54 265.04C839.95 267.4 840.9 269.22 842.39 270.49ZM854.34 260.65C854.23 259.59 853.99 258.59 853.63 257.66C853.27 256.73 852.77 255.92 852.16 255.24C851.54 254.56 850.8 254.02 849.94 253.62C849.08 253.22 848.11 253.02 847.01 253.01C844.97 253.01 843.28 253.71 841.95 255.12C840.62 256.53 839.8 258.36 839.51 260.63L854.34 260.65Z"
        fill="#0C3249"
      ></path>
      <path
        d="M893.01 277.21L885.35 277.2L876.66 264.68L872.61 268.9L872.6 277.19L865.92 277.18L865.96 237.12L872.64 237.13L872.61 261.06L884.61 248.23L892.65 248.24L881.14 260.03L893.01 277.21Z"
        fill="#0C3249"
      ></path>
      <path
        d="M913.26 277.23V273.66C912.27 274.83 911.01 275.82 909.48 276.62C907.95 277.42 906.09 277.82 903.9 277.82C902.51 277.82 901.2 277.62 899.96 277.24C898.72 276.85 897.63 276.29 896.7 275.53C895.77 274.78 895.02 273.85 894.46 272.73C893.89 271.61 893.61 270.32 893.61 268.86V268.75C893.61 267.18 893.91 265.81 894.49 264.64C895.07 263.47 895.89 262.5 896.93 261.73C897.97 260.96 899.21 260.39 900.65 260.01C902.09 259.63 903.65 259.44 905.33 259.44C907.08 259.44 908.57 259.55 909.79 259.77C911.01 259.99 912.19 260.29 913.32 260.65V259.94C913.32 257.93 912.71 256.39 911.49 255.33C910.27 254.27 908.51 253.74 906.21 253.73C904.57 253.73 903.11 253.89 901.83 254.22C900.55 254.55 899.26 254.99 897.94 255.53L896.14 250.2C897.75 249.47 899.39 248.89 901.07 248.45C902.75 248.01 904.77 247.8 907.15 247.8C911.46 247.8 914.65 248.88 916.72 251.02C918.8 253.16 919.83 256.17 919.83 260.05L919.81 277.23H913.26ZM913.44 264.94C912.6 264.61 911.61 264.33 910.46 264.11C909.31 263.89 908.1 263.78 906.82 263.78C904.74 263.78 903.11 264.18 901.95 264.98C900.78 265.78 900.2 266.94 900.19 268.44V268.55C900.19 269.94 900.73 271 901.8 271.73C902.88 272.46 904.2 272.83 905.77 272.83C906.87 272.83 907.88 272.69 908.81 272.39C909.74 272.1 910.55 271.69 911.25 271.16C911.94 270.63 912.48 269.99 912.87 269.24C913.25 268.49 913.45 267.66 913.45 266.74L913.44 264.94Z"
        fill="#0C3249"
      ></path>
      <path
        d="M969.08 249.12C970.67 248.18 972.56 247.71 974.75 247.71C977.93 247.71 980.41 248.68 982.19 250.6C983.98 252.52 984.87 255.26 984.86 258.81L984.84 277.3L978.16 277.29L978.18 260.87C978.18 258.57 977.67 256.82 976.66 255.61C975.64 254.4 974.21 253.8 972.36 253.8C970.54 253.8 969.06 254.41 967.92 255.63C966.77 256.85 966.2 258.63 966.2 260.97L966.18 277.29L959.5 277.28L959.52 260.8C959.52 258.54 959.01 256.8 958 255.6C956.98 254.39 955.55 253.79 953.7 253.79C951.85 253.79 950.36 254.42 949.23 255.7C948.1 256.98 947.54 258.75 947.54 261.01L947.52 277.27L940.84 277.26L940.87 248.29L947.55 248.3V252.73C948.02 252.07 948.54 251.44 949.08 250.85C949.63 250.26 950.26 249.72 950.97 249.25C951.68 248.77 952.48 248.39 953.38 248.12C954.27 247.84 955.27 247.71 956.36 247.71C958.44 247.71 960.2 248.18 961.64 249.13C963.08 250.07 964.18 251.32 964.95 252.87C966.11 251.31 967.49 250.06 969.08 249.12Z"
        fill="#0C3249"
      ></path>
      <path
        d="M1008.88 277.33V273.76C1007.89 274.93 1006.63 275.92 1005.1 276.72C1003.57 277.52 1001.71 277.92 999.52 277.92C998.13 277.92 996.82 277.72 995.58 277.34C994.34 276.95 993.26 276.39 992.33 275.63C991.4 274.88 990.65 273.95 990.09 272.83C989.53 271.71 989.24 270.42 989.25 268.96V268.85C989.25 267.28 989.55 265.91 990.13 264.74C990.72 263.57 991.53 262.6 992.57 261.83C993.61 261.06 994.85 260.49 996.29 260.11C997.73 259.73 999.29 259.54 1000.97 259.54C1002.72 259.54 1004.21 259.65 1005.43 259.87C1006.65 260.09 1007.83 260.39 1008.96 260.75V260.04C1008.96 258.03 1008.35 256.49 1007.13 255.43C1005.91 254.37 1004.15 253.84 1001.85 253.83C1000.21 253.83 998.75 253.99 997.47 254.32C996.19 254.65 994.9 255.09 993.58 255.63L991.78 250.3C993.39 249.57 995.03 248.99 996.71 248.55C998.39 248.11 1000.41 247.9 1002.79 247.9C1007.09 247.9 1010.29 248.98 1012.36 251.12C1014.44 253.26 1015.47 256.27 1015.47 260.15L1015.45 277.33H1008.88ZM1009.05 265.04C1008.21 264.71 1007.22 264.43 1006.07 264.21C1004.92 263.99 1003.71 263.88 1002.43 263.88C1000.35 263.88 998.73 264.28 997.56 265.08C996.39 265.88 995.81 267.04 995.81 268.54V268.65C995.81 270.04 996.35 271.1 997.42 271.84C998.5 272.57 999.82 272.94 1001.39 272.94C1002.49 272.94 1003.5 272.8 1004.43 272.51C1005.36 272.22 1006.17 271.81 1006.87 271.28C1007.56 270.75 1008.1 270.11 1008.49 269.36C1008.87 268.61 1009.07 267.78 1009.07 266.86L1009.05 265.04Z"
        fill="#0C3249"
      ></path>
      <path
        d="M1028.36 277.35L1021.68 277.34L1021.71 248.37L1028.39 248.38L1028.38 254.91C1029.29 252.72 1030.59 250.96 1032.27 249.65C1033.95 248.33 1036.07 247.73 1038.62 247.85L1038.61 254.87H1038.23C1036.77 254.87 1035.44 255.11 1034.23 255.58C1033.03 256.06 1031.99 256.77 1031.11 257.72C1030.23 258.67 1029.56 259.87 1029.08 261.31C1028.6 262.76 1028.37 264.43 1028.36 266.33V277.35Z"
        fill="#0C3249"
      ></path>
      <path
        d="M1069.74 277.39L1062.08 277.38L1053.39 264.86L1049.34 269.08L1049.33 277.37L1042.65 277.36L1042.69 237.3L1049.37 237.31L1049.34 261.24L1061.34 248.41L1069.39 248.42L1057.88 260.21L1069.74 277.39Z"
        fill="#0C3249"
      ></path>
      <path
        d="M1089.99 277.42V273.85C1089 275.02 1087.74 276.01 1086.21 276.81C1084.68 277.61 1082.82 278.01 1080.63 278.01C1079.24 278.01 1077.93 277.81 1076.69 277.43C1075.45 277.04 1074.37 276.48 1073.44 275.72C1072.51 274.97 1071.76 274.04 1071.2 272.92C1070.64 271.8 1070.35 270.51 1070.36 269.05V268.94C1070.36 267.37 1070.66 266 1071.24 264.83C1071.83 263.66 1072.64 262.69 1073.68 261.92C1074.72 261.15 1075.96 260.58 1077.4 260.2C1078.84 259.82 1080.4 259.63 1082.08 259.63C1083.83 259.63 1085.32 259.74 1086.54 259.96C1087.76 260.18 1088.94 260.48 1090.07 260.84V260.13C1090.07 258.12 1089.46 256.58 1088.24 255.52C1087.02 254.46 1085.26 253.93 1082.96 253.92C1081.32 253.92 1079.86 254.08 1078.58 254.41C1077.3 254.74 1076.01 255.18 1074.69 255.72L1072.89 250.39C1074.5 249.66 1076.14 249.08 1077.82 248.64C1079.5 248.2 1081.52 247.99 1083.9 247.99C1088.2 247.99 1091.4 249.07 1093.47 251.21C1095.55 253.35 1096.58 256.36 1096.58 260.24L1096.56 277.42H1089.99ZM1090.17 265.12C1089.33 264.79 1088.34 264.51 1087.19 264.29C1086.04 264.07 1084.83 263.96 1083.55 263.96C1081.47 263.96 1079.85 264.36 1078.68 265.16C1077.51 265.96 1076.93 267.12 1076.93 268.62V268.73C1076.93 270.12 1077.47 271.18 1078.54 271.92C1079.62 272.65 1080.94 273.02 1082.51 273.02C1083.61 273.02 1084.62 272.88 1085.55 272.58C1086.48 272.29 1087.29 271.88 1087.99 271.35C1088.68 270.82 1089.22 270.18 1089.61 269.43C1089.99 268.68 1090.19 267.85 1090.19 266.93L1090.17 265.12Z"
        fill="#0C3249"
      ></path>
      <path
        d="M1102.11 253.89L1102.12 248.46L1126.64 248.49V253.04L1109.93 272.01L1126.62 272.03L1126.61 277.46L1101.49 277.43V272.87L1118.2 253.9L1102.11 253.89Z"
        fill="#0C3249"
      ></path>
      <path
        d="M1131.95 244.04L1131.96 237.73L1139.13 237.74L1139.12 244.05L1131.95 244.04ZM1132.19 277.46L1132.22 248.49L1138.9 248.5L1138.87 277.47L1132.19 277.46Z"
        fill="#0C3249"
      ></path>
      <path
        d="M232.16 49.55L188.08 75.0101L147.69 51.57L107.28 74.9101L63.25 49.36L147.74 0.560059L232.16 49.55Z"
        fill="#F48F1D"
      ></path>
      <path
        d="M63.31 121.62L44.97 110.97L44.79 281L0.76001 255.45L0.930008 85.42L45.02 59.97L85.38 83.38L89.05 85.52L123.51 105.51L129.44 108.95L147.79 119.6L154.38 115.79L166.15 108.99L192.56 93.74L206.57 85.65L250.65 60.2L294.65 85.73L294.47 255.76L250.39 281.22L250.57 111.19H250.56L232.2 121.79L214.53 131.99L197.81 141.65L188.11 147.25L176.35 154.04L147.7 170.59L107.34 147.17L101.44 143.74L97.65 141.54L63.31 121.62Z"
        fill="#F48F1D"
      ></path>
      <path
        opacity="0.99"
        d="M232.22 143.05L232.07 291.82L147.57 340.62L63.18 291.64L63.34 142.87L107.37 168.42L107.27 266.18L147.63 289.61L188.04 266.27L188.14 168.51L232.22 143.05Z"
        fill="#F48F1D"
      ></path>
      <path
        d="M144.69 196.73L126.87 196.711L126.851 214.581L144.671 214.6L144.69 196.73Z"
        fill="#F48F1D"
      ></path>
      <path
        d="M168.57 196.75L150.75 196.731L150.731 214.601L168.551 214.62L168.57 196.75Z"
        fill="#F48F1D"
      ></path>
      <path
        d="M144.67 220.67L126.85 220.651L126.831 238.521L144.651 238.54L144.67 220.67Z"
        fill="#F48F1D"
      ></path>
      <path
        d="M168.55 220.69L150.73 220.671L150.711 238.541L168.531 238.56L168.55 220.69Z"
        fill="#F48F1D"
      ></path>
    </svg>
